<svg xmlns="http://www.w3.org/2000/svg" id="client-bookmark_export" width="16" height="16" viewBox="0 0 16 16">
    <path fill="#7289da" d="M4.885 14.875l-1.88-1.858-1.88 1.858v-13.75h3.76v13.75z"/>
    <path fill="#ccc" d="M14.875 11.149l-1.88-1.858-1.88 1.858v-10.024h3.76v10.024z"/>
    <path fill="#b3b3b3" d="M9.88 13.004l-1.88-1.858-1.88 1.858v-11.879h3.76v11.879z"/>
    <path fill="#fff" d="M13.971 9.28l-0.757-0.757-3.815 0.349-0.5 4.722 4.722-0.5 0.35-3.815z" transform="rotate(180, 11.2, 11.3)" />
    <path fill="#1ca037" d="M13.971 9.28l-2.114 2.114 1.036 1.036-3.435 0.606 0.606-3.434 1.036 1.036 2.114-2.114c-1.376-1.011-3.32-0.895-4.565 0.349-1.373 1.373-1.373 3.599 0 4.972s3.599 1.373 4.972-0c1.244-1.244 1.361-3.189 0.35-4.565z" transform="rotate(180, 11.2, 11.3)"/>
</svg>
